<svg xmlns="http://www.w3.org/2000/svg" width="56" height="277" fill="none"><ellipse cx="29" cy="187.5" fill="#D9D9D9" rx="2" ry="17.5"/><ellipse fill="#D9D9D9" rx="1.96" ry="12.69" transform="matrix(.90665 -.42189 .174 .98474 18.187 195.31)"/><ellipse fill="#D9D9D9" rx="1.96" ry="12.69" transform="matrix(.90665 .42189 -.174 .98474 34.704 222.323)"/><ellipse fill="#D9D9D9" rx="1.96" ry="12.69" transform="matrix(.90665 .42189 -.174 .98474 39.634 195.323)"/><ellipse fill="#D9D9D9" rx="1.96" ry="12.69" transform="matrix(.90665 -.42189 .174 .98474 23.117 222.31)"/><ellipse cx="28.5" cy="234.5" fill="#D9D9D9" rx="2.5" ry="21.5"/><ellipse cx="29" cy="209" fill="#D9D9D9" rx="1" ry="2"/><ellipse cx="29" cy="165" fill="#D9D9D9" rx="1" ry="2"/><path stroke="#fff" stroke-linecap="round" stroke-width="2" d="M29.324 275.56C36.966 230.754 42.2 205.565 55 160.394M1 150.553c12.624 46.093 19.01 73.022 27.87 125.007M29 1v156"/><ellipse fill="#D9D9D9" rx=".621" ry=".997" transform="matrix(.98805 -.15416 .05914 .99825 3.117 149.219)"/><ellipse fill="#D9D9D9" rx=".621" ry=".997" transform="matrix(.98805 -.15416 .05914 .99825 6.278 160.781)"/><ellipse fill="#D9D9D9" rx=".621" ry=".997" transform="matrix(.98805 -.15416 .05914 .99825 5.488 157.891)"/><ellipse fill="#D9D9D9" rx=".621" ry=".997" transform="matrix(.98805 -.15416 .05914 .99825 4.697 155)"/><ellipse fill="#D9D9D9" rx=".621" ry=".997" transform="matrix(.98805 -.15416 .05914 .99825 3.907 152.109)"/><ellipse fill="#D9D9D9" rx=".618" ry=".999" transform="matrix(.99624 .08664 -.033 .99945 31.556 139.249)"/><ellipse fill="#D9D9D9" rx=".618" ry=".999" transform="matrix(.99624 .08664 -.033 .99945 31.331 151.893)"/><ellipse fill="#D9D9D9" rx=".618" ry=".999" transform="matrix(.99624 .08664 -.033 .99945 31.388 148.732)"/><ellipse fill="#D9D9D9" rx=".618" ry=".999" transform="matrix(.99624 .08664 -.033 .99945 31.444 145.571)"/><ellipse fill="#D9D9D9" rx=".618" ry=".999" transform="matrix(.99624 .08664 -.033 .99945 31.5 142.41)"/><ellipse fill="#D9D9D9" rx=".667" ry=".967" transform="matrix(.87506 .48401 -.20555 .97865 42.936 216.269)"/><ellipse fill="#D9D9D9" rx=".667" ry=".967" transform="matrix(.87506 .48401 -.20555 .97865 40.604 228.339)"/><ellipse fill="#D9D9D9" rx=".667" ry=".967" transform="matrix(.87506 .48401 -.20555 .97865 41.187 225.322)"/><ellipse fill="#D9D9D9" rx=".667" ry=".967" transform="matrix(.87506 .48401 -.20555 .97865 41.77 222.304)"/><ellipse fill="#D9D9D9" rx=".667" ry=".967" transform="matrix(.87506 .48401 -.20555 .97865 42.353 219.287)"/><ellipse fill="#D9D9D9" rx=".618" ry=".999" transform="matrix(.99624 .08664 -.033 .99945 31.452 2.052)"/><ellipse fill="#D9D9D9" rx=".618" ry=".999" transform="matrix(.99624 .08664 -.033 .99945 31.227 14.696)"/><ellipse fill="#D9D9D9" rx=".618" ry=".999" transform="matrix(.99624 .08664 -.033 .99945 31.283 11.535)"/><ellipse fill="#D9D9D9" rx=".618" ry=".999" transform="matrix(.99624 .08664 -.033 .99945 31.34 8.374)"/><ellipse fill="#D9D9D9" rx=".618" ry=".999" transform="matrix(.99624 .08664 -.033 .99945 31.396 5.213)"/><ellipse fill="#D9D9D9" rx=".618" ry=".999" transform="matrix(.99624 .08664 -.033 .99945 25.906 86.052)"/><ellipse fill="#D9D9D9" rx=".618" ry=".999" transform="matrix(.99624 .08664 -.033 .99945 25.681 98.696)"/><ellipse fill="#D9D9D9" rx=".618" ry=".999" transform="matrix(.99624 .08664 -.033 .99945 25.737 95.535)"/><ellipse fill="#D9D9D9" rx=".618" ry=".999" transform="matrix(.99624 .08664 -.033 .99945 25.793 92.374)"/><ellipse fill="#D9D9D9" rx=".618" ry=".999" transform="matrix(.99624 .08664 -.033 .99945 25.85 89.213)"/><ellipse fill="#D9D9D9" rx=".621" ry=".997" transform="matrix(.98805 -.15416 .05914 .99825 7.218 164.091)"/><ellipse fill="#D9D9D9" rx=".621" ry=".997" transform="matrix(.98805 -.15416 .05914 .99825 10.38 175.653)"/><ellipse fill="#D9D9D9" rx=".621" ry=".997" transform="matrix(.98805 -.15416 .05914 .99825 9.59 172.763)"/><ellipse fill="#D9D9D9" rx=".621" ry=".997" transform="matrix(.98805 -.15416 .05914 .99825 8.799 169.872)"/><ellipse fill="#D9D9D9" rx=".621" ry=".997" transform="matrix(.98805 -.15416 .05914 .99825 8.009 166.982)"/><ellipse cx="33.5" cy="203.5" fill="#D9D9D9" rx="2.5" ry="3.5"/><ellipse cx="24.5" cy="203.5" fill="#D9D9D9" rx="2.5" ry="3.5"/></svg>